<svg xmlns="http://www.w3.org/2000/svg" width="160" height="36" viewBox="0 0 160 36">
    <path fill="#5845f3" d="M76 36H0V0h76v36zM13.7 24.8h3.2V13.5h4.5v-2.6H9.2v2.6h4.5v11.3zm13-2.6V19h6.5v-2.5h-6.5v-3H34v-2.6H23.4v14h10.8v-2.6h-7.5zm17.1 2.9c1.2 0 2.3-.2 3.3-.6 1-.4 1.8-1 2.5-1.9l-2.1-1.9c-.9 1.1-2.1 1.7-3.5 1.7-.9 0-1.6-.2-2.3-.6-.7-.4-1.2-.9-1.6-1.6s-.6-1.5-.6-2.3c0-.9.2-1.6.6-2.3.4-.7.9-1.2 1.6-1.6.7-.4 1.5-.6 2.3-.6 1.4 0 2.6.5 3.5 1.6l2.1-1.9c-.7-.8-1.5-1.4-2.5-1.8-1-.4-2.1-.6-3.3-.6-1.4 0-2.7.3-3.9.9s-2.1 1.5-2.7 2.6c-.7 1.1-1 2.3-1 3.7s.3 2.6 1 3.7 1.6 2 2.7 2.6c1.2.6 2.5.9 3.9.9zm17.9-14.3v5.5h-6.4v-5.5h-3.2v14h3.2v-5.7h6.4v5.7h3.2v-14h-3.2z"/>
    <path fill="#1c1c1c" d="M86.3 24.7c-1-.3-1.8-.8-2.3-1.3l.7-1.6c.5.5 1.2.9 2.1 1.2.8.3 1.7.5 2.6.5 1.2 0 2-.2 2.6-.6s.9-.9.9-1.6c0-.5-.2-.9-.5-1.2s-.7-.5-1.2-.7-1.1-.3-2-.5c-1.1-.3-1.9-.5-2.5-.8-.7-.2-1.2-.6-1.7-1.1s-.7-1.2-.7-2.1c0-.7.2-1.4.6-2 .4-.6 1-1.1 1.8-1.4.8-.4 1.8-.5 3-.5.8 0 1.6.1 2.4.3s1.5.5 2.1.9l-.7 1.6c-.6-.4-1.2-.7-1.9-.9-.7-.2-1.3-.3-2-.3-1.1 0-2 .2-2.5.6s-.8.9-.8 1.6c0 .5.2.9.5 1.2.3.3.7.5 1.2.7.5.2 1.1.3 1.9.5 1.1.3 1.9.5 2.5.8.6.3 1.2.6 1.7 1.2s.7 1.2.7 2.1c0 .7-.2 1.4-.6 2-.4.6-1 1.1-1.8 1.4-.8.4-1.8.5-3 .5-1.1 0-2.1-.2-3.1-.5zm21.4-12.4c1 .9 1.6 2.1 1.6 3.6s-.5 2.7-1.6 3.6-2.5 1.3-4.3 1.3H100V25h-2V11h5.5c1.8 0 3.2.4 4.2 1.3zm-1.4 5.9c.7-.5 1-1.3 1-2.3 0-1-.3-1.8-1-2.3-.7-.5-1.6-.8-2.9-.8H100V19h3.4c1.3 0 2.2-.2 2.9-.8zm14.5 3.3h-7.4l-1.5 3.5h-2.1l6.3-14h2l6.4 14h-2.1l-1.6-3.5zm-.7-1.6l-3-6.9-3 6.9h6zm8.9 4.3c-1.1-.6-2-1.5-2.7-2.6-.6-1.1-1-2.3-1-3.7 0-1.4.3-2.6 1-3.7.6-1.1 1.5-1.9 2.7-2.6 1.1-.6 2.4-.9 3.8-.9 1.1 0 2.1.2 3 .6.9.4 1.7.9 2.3 1.6l-1.3 1.3c-1.1-1.1-2.4-1.7-3.9-1.7-1 0-2 .2-2.8.7-.8.5-1.5 1.1-2 1.9s-.7 1.7-.7 2.8c0 1 .2 1.9.7 2.8s1.1 1.5 2 1.9c.8.5 1.8.7 2.8.7 1.6 0 2.9-.6 3.9-1.7l1.3 1.3c-.6.7-1.4 1.3-2.3 1.6-.9.4-1.9.6-3 .6-1.4.1-2.6-.3-3.8-.9zm22.5-.9V25h-10.2V11h9.9v1.7h-7.9V17h7v1.7h-7v4.5h8.2z"/>
</svg>